<svg xmlns="http://www.w3.org/2000/svg" width="600" height="370" viewBox="0 0 600 370" role="img" aria-labelledby="title desc">
  <title id="title">Category placeholder</title>
  <desc id="desc">A simple neutral fashion category placeholder.</desc>
  <defs>
    <linearGradient id="bg" x1="0" x2="1" y1="0" y2="1">
      <stop offset="0" stop-color="#f8f4ef"/>
      <stop offset="1" stop-color="#e8ded2"/>
    </linearGradient>
    <linearGradient id="accent" x1="0" x2="1" y1="0" y2="0">
      <stop offset="0" stop-color="#f7941d"/>
      <stop offset="1" stop-color="#d87010"/>
    </linearGradient>
  </defs>
  <rect width="600" height="370" fill="url(#bg)"/>
  <rect x="0" y="0" width="600" height="370" fill="#ffffff" opacity=".24"/>
  <path d="M75 96h450" stroke="#d8cbbb" stroke-width="10" stroke-linecap="round"/>
  <path d="M175 99c0 42-42 38-42 86v74h126v-74c0-48-42-44-42-86" fill="#ffffff" opacity=".74"/>
  <path d="M383 99c0 42-42 38-42 86v74h126v-74c0-48-42-44-42-86" fill="#ffffff" opacity=".74"/>
  <path d="M191 96c0-21 35-21 35 0 0 14-13 20-28 27" fill="none" stroke="#8c7d6d" stroke-width="8" stroke-linecap="round"/>
  <path d="M399 96c0-21 35-21 35 0 0 14-13 20-28 27" fill="none" stroke="#8c7d6d" stroke-width="8" stroke-linecap="round"/>
  <rect x="196" y="188" width="42" height="8" rx="4" fill="url(#accent)" opacity=".85"/>
  <rect x="404" y="188" width="42" height="8" rx="4" fill="url(#accent)" opacity=".85"/>
  <rect x="0" y="332" width="600" height="38" fill="#2f2f2f" opacity=".08"/>
</svg>
